<?xml version="1.0" encoding="utf-8"?>
<!-- Generator: Adobe Illustrator 25.4.1, SVG Export Plug-In . SVG Version: 6.00 Build 0)  -->
<svg version="1.1" id="Layer_1" xmlns="http://www.w3.org/2000/svg" xmlns:xlink="http://www.w3.org/1999/xlink" x="0px" y="0px"
	 viewBox="0 0 48 48" style="enable-background:new 0 0 48 48;" xml:space="preserve">
<style type="text/css">
	.st0{fill:#FFFFFF;}
	.st1{fill:none;}
</style>
<g id="SVGRepo_iconCarrier">
	<path class="st0" d="M25,33.4H6.8l11.6-11.6l4.5,3.5l4.5-3.5l3.1,3.1c0.6-0.3,1.3-0.6,2-0.8L29,20.6l11.4-8.8v13.1
		c0.7,0.3,1.3,0.8,1.9,1.2V11c0-1.6-1.3-2.9-2.9-2.9H6.4c-1.6,0-2.9,1.3-2.9,2.9v21.4c0,1.6,1.3,2.9,2.9,2.9H25c0-0.3,0-0.6,0-1
		C24.9,34,24.9,33.7,25,33.4z M5.4,32V11.8l11.4,8.8L5.4,32z M39.5,10C39.5,10,39.5,10,39.5,10L23,22.8L6.4,10c0,0,0,0,0,0H39.5z
		 M35.6,25.6c-4.8,0-8.8,3.9-8.8,8.8c0,0.3,0,0.7,0.1,1c0.5,4.4,4.2,7.8,8.7,7.8h1v-1.9h-1c-3.4,0-6.2-2.5-6.7-5.8
		c-0.1-0.3-0.1-0.6-0.1-1c0-3.8,3-6.8,6.8-6.8c1.8,0,3.5,0.7,4.8,1.9h-1.8v1c-0.8-0.6-1.9-1-2.9-1c-2.7,0-4.9,2.2-4.9,4.9
		c0,2.7,2.2,4.9,4.9,4.9c1.3,0,2.5-0.5,3.4-1.4c0.9,1.4,2.6,1.8,4,0.9c0.9-0.5,1.4-1.5,1.4-2.5v-1.9C44.3,29.5,40.4,25.6,35.6,25.6z
		 M35.6,37.3c-1.2,0-2.3-0.8-2.7-1.9c-0.1-0.3-0.2-0.6-0.2-1c0-1.6,1.3-2.9,2.9-2.9s2.9,1.3,2.9,2.9c0,0.3-0.1,0.7-0.2,1
		C37.9,36.5,36.8,37.3,35.6,37.3z M42.4,36.3c0,0.5-0.4,1-1,1c-0.5,0-1-0.4-1-1v-6.7c1.2,1.3,1.9,3,1.9,4.8V36.3z"/>
	<path class="st1" d="M-0.4,0.3h46.7V47H-0.4V0.3z"/>
</g>
</svg>
